<?xml version="1.0" standalone="no"?>
<!DOCTYPE svg PUBLIC "-//W3C//DTD SVG 20010904//EN"
 "http://www.w3.org/TR/2001/REC-SVG-20010904/DTD/svg10.dtd">
<svg version="1.0" xmlns="http://www.w3.org/2000/svg"
 width="345.000000pt" height="146.000000pt" viewBox="0 0 345.000000 146.000000"
 preserveAspectRatio="xMidYMid meet">
<metadata>
Created by potrace 1.16, written by Peter Selinger 2001-2019
</metadata>
<g transform="translate(0.000000,146.000000) scale(0.100000,-0.100000)"
fill="#000000" stroke="none">
<path d="M2176 1033 c-14 -21 -28 -51 -32 -68 -4 -16 -17 -46 -30 -65 -12 -19
-27 -59 -33 -88 -6 -29 -20 -65 -31 -80 -22 -31 -39 -98 -40 -157 0 -30 -3
-36 -10 -25 -5 8 -10 45 -10 81 0 36 -3 69 -7 73 -7 7 -12 28 -17 84 -2 18 -9
39 -16 47 -9 11 -8 26 4 69 20 66 20 76 2 76 -8 0 -30 -32 -49 -71 -31 -63
-36 -69 -50 -55 -21 22 -30 7 -58 -94 -15 -54 -24 -115 -24 -165 -1 -65 -5
-87 -24 -118 -18 -29 -22 -45 -16 -70 7 -32 10 -71 13 -175 4 -102 50 -26 51
84 1 36 7 59 22 78 12 15 19 35 16 46 -3 11 -1 39 5 62 5 24 11 82 13 130 2
47 8 94 14 105 9 15 10 13 11 -15 0 -19 10 -47 21 -64 23 -32 34 -68 52 -163
6 -33 16 -63 21 -67 6 -4 16 -22 22 -40 15 -45 44 -50 44 -8 0 17 7 47 15 67
8 19 15 49 15 65 0 16 9 41 20 55 14 19 20 41 20 81 l0 55 21 -27 c20 -25 21
-31 10 -68 -15 -50 -5 -179 17 -227 9 -19 15 -49 13 -67 -1 -18 2 -35 8 -39 6
-3 11 -14 11 -24 0 -10 7 -24 15 -31 8 -7 15 -23 15 -36 0 -19 5 -24 25 -24
22 0 25 3 19 27 -3 16 -10 40 -16 55 -5 14 -7 36 -3 47 3 11 0 33 -8 48 -8 15
-12 34 -9 41 2 8 -1 24 -8 37 -9 17 -10 31 -1 57 6 18 11 47 10 63 -1 32 -23
190 -40 291 -12 67 -5 117 23 181 31 69 4 88 -36 26z m15 -41 c-11 -28 -21
-68 -21 -89 -1 -40 13 -159 30 -253 12 -65 12 -153 1 -183 -5 -12 -5 -31 0
-42 4 -11 8 -34 8 -52 1 -17 6 -35 12 -39 6 -4 9 -20 6 -38 -3 -18 1 -43 9
-56 22 -41 16 -54 -11 -22 -14 17 -25 39 -25 51 0 12 -5 21 -11 21 -7 0 -9 12
-5 35 5 24 2 42 -10 60 -25 39 -34 142 -19 236 5 31 4 49 -4 53 -6 4 -11 20
-11 36 0 16 -5 32 -10 35 -14 9 -31 -41 -35 -103 -1 -31 -9 -60 -19 -71 -16
-18 -32 -80 -43 -168 -5 -44 -23 -50 -23 -8 0 13 -9 32 -19 42 -11 10 -21 37
-24 63 -8 66 -29 131 -54 167 -14 18 -23 46 -23 67 0 20 -5 36 -11 36 -17 0
-40 -69 -38 -118 3 -74 -22 -235 -39 -255 -10 -11 -16 -41 -18 -80 -1 -34 -7
-75 -12 -92 -10 -29 -10 -29 -12 15 0 25 -3 83 -5 129 -4 71 -1 89 15 116 15
24 20 51 20 106 1 46 10 106 25 159 13 47 24 81 24 75 1 -5 6 -3 11 5 6 10 10
11 10 3 0 -21 20 -15 30 10 6 12 14 29 19 37 5 8 16 32 25 54 22 51 30 41 11
-14 -17 -47 -19 -86 -7 -94 5 -3 14 -51 21 -108 23 -184 36 -231 55 -200 3 5
10 45 15 91 7 53 18 92 31 111 11 15 27 56 36 91 9 35 27 79 40 99 13 19 24
43 24 52 0 17 42 90 48 84 1 -2 -6 -26 -17 -54z"/>
<path d="M232 983 c-21 -16 -48 -27 -73 -28 -22 -1 -48 -10 -59 -20 -10 -9
-23 -14 -29 -11 -17 11 -24 -34 -8 -52 10 -11 15 -34 14 -64 -1 -33 3 -52 17
-67 13 -15 20 -38 21 -81 1 -33 7 -72 13 -87 26 -73 34 -114 28 -146 -4 -21
-2 -38 4 -42 5 -3 9 -27 8 -53 -1 -31 6 -63 21 -94 13 -26 20 -52 16 -58 -4
-6 0 -19 8 -28 8 -9 17 -28 19 -41 5 -35 28 -39 28 -5 0 15 7 35 16 45 11 13
13 22 6 36 -6 10 -8 30 -5 45 3 15 -2 36 -12 52 -14 21 -15 32 -8 49 7 15 8
43 2 77 -10 62 -6 70 19 47 10 -10 28 -17 39 -17 12 0 25 -11 32 -26 7 -17 17
-24 26 -20 25 9 64 -12 71 -39 4 -16 13 -25 26 -25 19 0 108 -82 108 -99 0 -5
9 -13 20 -16 11 -3 23 -18 26 -33 4 -15 18 -40 31 -55 12 -16 23 -33 23 -38 0
-6 5 -7 10 -4 17 10 11 68 -10 100 -11 17 -20 36 -20 43 0 8 -20 33 -45 56
-25 24 -45 49 -45 56 0 11 -25 45 -75 103 -9 10 -19 15 -24 13 -4 -3 -27 12
-50 34 l-42 39 21 21 c11 11 27 20 35 20 9 0 26 24 41 58 14 31 30 64 34 73
12 23 15 123 5 140 -5 8 -8 26 -7 40 4 31 -20 53 -46 45 -14 -5 -21 -1 -25 14
-3 12 -13 20 -26 20 -12 0 -38 8 -59 19 -65 32 -84 33 -120 4z m118 -18 c27
-14 56 -25 65 -25 8 0 15 -7 15 -15 0 -10 10 -15 30 -15 28 0 30 -3 30 -34 0
-19 4 -37 9 -41 13 -7 8 -104 -7 -130 -6 -11 -18 -41 -28 -67 -9 -27 -23 -48
-30 -48 -7 0 -27 -13 -45 -30 l-33 -29 27 -25 c15 -14 27 -30 27 -36 0 -5 7
-10 15 -10 8 0 15 -4 15 -10 0 -5 11 -10 24 -10 23 0 40 -19 86 -99 8 -14 34
-46 58 -70 23 -24 42 -50 42 -59 0 -8 6 -23 14 -31 7 -9 17 -27 20 -41 l7 -25
-25 28 c-14 15 -26 35 -26 43 0 8 -29 43 -65 79 -36 35 -65 69 -65 74 0 6 -11
11 -24 11 -16 0 -27 7 -31 20 -7 22 -60 51 -80 44 -7 -3 -16 3 -20 15 -3 12
-18 24 -33 27 -15 4 -35 14 -45 23 -17 14 -20 14 -32 -3 -9 -11 -11 -26 -6
-40 4 -11 7 -48 5 -81 -1 -33 3 -69 9 -80 13 -23 17 -105 6 -120 -4 -5 -9 -21
-12 -35 l-4 -25 -2 27 c0 15 -6 30 -11 33 -5 3 -10 20 -10 36 0 16 -8 42 -18
56 -9 15 -18 50 -19 78 -4 90 -23 227 -36 249 -14 24 -17 44 -18 106 0 28 -8
53 -21 69 -15 20 -18 35 -13 67 4 30 2 44 -10 54 -19 16 -20 40 -1 40 7 0 19
7 26 15 7 8 29 15 49 15 24 0 49 9 71 25 19 14 42 25 52 25 10 0 41 -11 68
-25z"/>
<path d="M240 865 c-7 -8 -25 -15 -40 -15 -30 0 -48 -26 -30 -44 5 -5 10 -22
10 -37 0 -15 5 -31 10 -34 6 -3 10 -19 10 -35 0 -15 5 -30 10 -32 6 -2 12 -26
13 -53 2 -50 2 -50 37 -51 19 0 42 5 50 12 8 6 27 14 42 18 19 4 30 15 34 34
4 15 15 38 24 52 20 28 20 84 1 103 -6 6 -11 18 -11 27 0 21 -20 40 -42 40
-10 0 -21 7 -24 15 -4 10 -20 15 -44 15 -21 0 -43 -7 -50 -15z m92 -22 c9 -8
21 -12 27 -9 12 8 42 -54 47 -98 2 -16 -2 -39 -9 -50 -8 -12 -17 -33 -21 -48
-3 -16 -11 -28 -16 -28 -5 0 -21 -5 -37 -12 -15 -7 -41 -12 -56 -13 -22 0 -27
3 -24 17 3 10 1 21 -4 24 -5 3 -9 16 -9 30 0 13 -4 24 -10 24 -5 0 -10 13 -10
28 0 15 -4 32 -9 38 -5 5 -12 28 -16 52 -7 41 -6 42 23 42 16 0 35 7 42 15 14
17 55 11 82 -12z"/>
<path d="M3005 756 c-4 -53 -5 -108 -2 -123 15 -72 19 -90 29 -110 7 -15 7
-31 -1 -54 -6 -17 -11 -42 -11 -55 0 -17 -7 -24 -31 -29 -18 -4 -33 -15 -36
-26 -3 -10 -16 -25 -30 -34 -18 -12 -23 -23 -19 -38 4 -16 -9 -35 -60 -84 -36
-35 -68 -63 -72 -63 -12 0 -82 -68 -82 -79 0 -20 36 -11 59 13 12 13 42 29 65
35 44 11 102 65 156 146 14 21 35 47 48 59 13 11 40 37 60 57 20 20 51 44 69
52 17 9 40 27 50 39 10 13 51 45 91 72 40 27 78 58 83 69 10 18 9 19 -17 13
-16 -4 -47 -20 -70 -36 -22 -16 -60 -37 -85 -46 -24 -9 -50 -22 -58 -28 -11
-8 -13 -8 -7 2 4 7 3 19 -4 26 -6 8 -15 42 -21 76 -5 34 -16 72 -23 83 -8 12
-22 48 -31 79 -30 97 -42 93 -50 -16z m74 -79 c6 -6 11 -31 11 -54 0 -24 7
-57 15 -73 9 -18 13 -40 9 -55 -6 -25 9 -35 22 -14 3 6 32 22 63 36 31 14 70
35 86 47 31 23 65 39 65 30 0 -2 -35 -27 -77 -55 -42 -27 -83 -59 -91 -70 -8
-12 -30 -27 -48 -35 -19 -8 -40 -23 -46 -35 -7 -11 -34 -36 -60 -55 -27 -19
-48 -38 -48 -44 0 -12 -80 -118 -111 -147 -13 -11 -42 -26 -63 -32 -22 -5 -52
-23 -68 -37 -15 -15 -28 -23 -28 -17 0 7 18 24 41 40 22 15 70 56 106 90 50
48 63 66 58 82 -4 15 2 26 25 42 16 13 30 28 30 35 0 7 12 15 28 18 24 6 29
14 45 78 10 39 14 74 9 77 -22 15 -43 170 -34 246 l5 50 23 -68 c12 -38 27
-74 33 -80z"/>
<path d="M998 829 c-13 -7 -18 -23 -18 -57 0 -26 -9 -79 -20 -117 -11 -38 -20
-78 -20 -87 0 -21 25 -24 34 -5 4 6 3 -6 0 -28 -4 -22 -6 -53 -5 -70 0 -16 -6
-56 -14 -88 -16 -61 -13 -77 10 -77 12 0 34 55 49 121 9 41 33 44 56 6 11 -17
20 -40 20 -49 0 -9 5 -20 10 -23 12 -8 70 -126 70 -143 0 -20 20 -24 37 -7 15
15 15 22 4 64 -8 25 -17 62 -21 81 -12 56 -39 110 -55 110 -14 0 -75 80 -75
98 0 6 13 15 30 20 16 6 38 24 47 40 10 16 42 51 71 78 28 26 52 51 52 56 0
20 -42 5 -88 -32 -27 -22 -53 -40 -57 -40 -4 0 -18 -9 -32 -20 -36 -28 -44
-25 -42 13 2 17 2 62 1 100 -2 69 -8 77 -44 56z m28 -99 c-2 -55 1 -103 5
-106 13 -7 85 33 147 84 70 56 79 53 17 -6 -28 -26 -58 -59 -67 -73 -9 -14
-30 -32 -47 -39 -19 -8 -31 -20 -31 -31 0 -28 50 -100 77 -110 13 -5 23 -17
23 -28 0 -11 4 -22 9 -25 5 -4 12 -25 16 -48 4 -24 13 -59 20 -79 12 -33 12
-36 -3 -32 -10 2 -26 25 -36 51 -11 26 -28 58 -38 71 -10 13 -18 30 -18 38 0
12 -20 48 -47 82 -1 2 -9 -1 -16 -7 -8 -7 -17 -9 -20 -6 -3 3 -11 -14 -16 -37
-20 -80 -35 -122 -39 -110 -2 7 1 32 7 57 6 25 14 73 16 107 3 34 8 69 10 78
9 26 -16 35 -33 13 -14 -18 -14 -18 -8 6 32 115 47 188 43 207 -3 19 11 40 30
43 1 0 0 -45 -1 -100z"/>
<path d="M2812 753 c-20 -45 -42 -122 -47 -167 -1 -12 -14 -24 -33 -30 -47
-17 -48 -24 -4 -41 36 -15 40 -19 33 -43 -11 -45 -7 -255 5 -259 13 -4 34 70
34 121 0 19 5 38 11 41 5 4 9 17 8 28 0 12 -1 39 0 60 1 33 3 36 19 29 9 -5
38 -12 63 -16 46 -7 59 1 59 35 0 10 -71 42 -78 34 -3 -3 -11 0 -18 6 -8 6
-21 8 -30 5 -13 -5 -15 -2 -10 16 29 97 34 124 25 135 -7 8 -5 22 6 43 9 17
13 35 10 40 -13 21 -33 8 -53 -37z m33 10 c-5 -10 -9 -40 -10 -68 -2 -27 -10
-70 -18 -94 -18 -51 -15 -61 19 -61 13 0 24 -4 24 -10 0 -5 7 -7 15 -4 8 3 27
0 43 -7 22 -10 27 -16 18 -25 -6 -7 -18 -9 -26 -4 -8 4 -33 10 -56 13 l-40 7
-21 -128 -21 -127 3 132 c2 73 0 132 -3 131 -4 -1 -20 2 -37 7 l-30 8 35 12
c32 11 34 15 51 92 10 45 25 95 34 112 16 33 33 43 20 14z"/>
<path d="M2512 648 c-9 -78 -9 -95 3 -108 8 -9 12 -20 8 -24 -8 -7 -5 -155 3
-168 11 -18 32 14 39 57 3 25 10 45 14 45 15 0 58 -75 65 -115 10 -52 23 -75
43 -75 13 0 14 7 8 37 -4 21 -6 47 -6 58 1 28 -38 137 -56 157 -16 17 -15 18
52 53 23 12 32 60 14 81 -6 8 -12 24 -13 36 -1 18 -10 24 -44 31 -40 8 -45 6
-65 -20 l-22 -28 -5 34 c-10 65 -26 43 -38 -51z m41 1 c4 0 19 13 32 29 19 23
30 28 54 24 19 -2 31 -10 31 -19 0 -8 7 -27 16 -43 22 -36 14 -54 -30 -75 -55
-26 -61 -39 -31 -69 14 -14 23 -31 20 -37 -4 -5 0 -21 9 -34 9 -13 16 -40 16
-59 0 -19 4 -46 10 -60 6 -16 6 -26 0 -26 -5 0 -12 23 -16 50 -5 35 -17 64
-40 95 -19 24 -34 55 -34 69 0 28 -15 42 -26 24 -4 -6 -8 -30 -10 -52 -1 -23
-6 -57 -12 -76 -9 -29 -10 -20 -8 57 2 50 -1 96 -6 101 -6 6 -6 43 -2 93 7 68
9 77 14 46 3 -21 9 -38 13 -38z"/>
<path d="M1449 718 c-1 -7 -1 -29 0 -49 2 -27 -4 -43 -28 -68 -36 -38 -39 -61
-12 -85 19 -17 19 -18 -1 -52 -19 -33 -19 -36 -3 -60 13 -20 23 -25 46 -22 25
4 29 1 29 -18 0 -13 5 -26 12 -30 15 -9 38 23 38 54 0 13 7 30 15 38 37 37 -7
62 -51 29 -42 -32 -41 -12 1 32 25 26 45 50 45 54 0 11 -66 22 -81 14 -7 -5
-10 -3 -7 5 2 7 25 19 51 27 35 10 47 18 47 33 0 12 -7 20 -16 20 -21 0 -53
40 -54 68 0 23 -29 32 -31 10z m37 -65 c11 -24 19 -30 34 -26 11 3 20 1 20 -5
0 -6 -21 -17 -47 -24 -36 -10 -49 -19 -51 -35 -3 -19 2 -22 39 -25 l42 -3 -42
-43 c-22 -23 -41 -46 -41 -51 0 -19 21 -22 52 -7 41 21 55 20 35 -2 -10 -10
-17 -33 -17 -50 0 -18 -4 -32 -10 -32 -5 0 -10 14 -10 30 0 34 -2 35 -29 18
-15 -9 -23 -9 -35 1 -23 19 -20 48 9 77 29 28 30 34 12 34 -8 0 -22 9 -31 19
-17 18 -17 21 0 46 9 14 25 30 34 35 14 7 16 20 14 62 -2 29 -1 44 2 33 3 -11
12 -34 20 -52z"/>
<path d="M602 689 c-20 -8 -23 -15 -23 -61 1 -29 1 -62 1 -73 0 -11 5 -66 11
-122 8 -72 16 -103 25 -103 20 0 24 13 28 92 2 40 7 81 12 92 4 10 2 26 -4 36
-6 9 -10 43 -10 74 1 65 -7 78 -40 65z"/>
<path d="M813 680 c-12 -5 -25 -15 -30 -23 -4 -8 -17 -19 -28 -25 -12 -6 -26
-30 -34 -59 -7 -26 -20 -58 -28 -71 -7 -12 -10 -28 -6 -35 4 -7 6 -20 4 -30
-1 -11 5 -20 16 -23 18 -5 43 -46 43 -71 0 -23 30 -14 40 12 5 14 18 28 27 31
10 3 26 10 35 15 10 5 27 9 38 9 20 0 44 32 33 44 -3 3 -17 3 -30 0 -13 -4
-29 -2 -36 4 -14 11 -46 10 -65 -2 -21 -13 -26 1 -12 34 9 22 10 34 1 43 -8
11 -3 21 24 46 19 17 35 36 35 41 0 6 13 10 29 10 31 0 57 23 46 41 -4 6 -18
9 -31 6 -14 -2 -27 0 -30 4 -6 11 -12 10 -41 -1z m62 -20 l30 -7 -38 -8 c-21
-4 -41 -15 -44 -24 -4 -9 -20 -28 -37 -43 -26 -22 -29 -29 -20 -45 9 -14 8
-24 -4 -45 -13 -22 -13 -29 -2 -43 9 -11 16 -13 24 -5 13 13 73 13 81 0 4 -6
16 -8 27 -4 14 4 18 2 14 -5 -4 -6 -16 -11 -27 -11 -10 0 -27 -4 -37 -9 -9 -5
-25 -12 -35 -15 -11 -3 -21 -15 -24 -26 -8 -31 -21 -24 -29 16 -4 24 -13 38
-26 42 -15 4 -18 10 -12 35 4 20 3 27 -5 23 -15 -10 -13 5 4 27 7 11 17 37 20
59 5 29 13 42 30 48 13 5 29 18 35 30 11 21 24 23 75 10z"/>
<path d="M2322 646 c-23 -24 -42 -50 -42 -58 0 -8 -4 -18 -10 -24 -6 -6 -7
-38 -2 -84 7 -73 7 -74 40 -82 17 -5 32 -13 32 -18 0 -6 16 -10 35 -10 26 0
42 8 69 36 44 46 52 68 32 96 -11 15 -14 33 -10 55 11 56 -3 101 -36 118 -45
23 -62 19 -108 -29z m98 17 c33 -19 46 -66 30 -108 -8 -20 -7 -32 5 -48 20
-29 18 -47 -9 -80 -33 -40 -71 -48 -118 -23 -32 18 -38 26 -38 54 0 18 -5 42
-11 53 -8 16 -6 29 7 57 16 34 86 112 100 112 3 0 19 -8 34 -17z"/>
</g>
</svg>
